<?xml version="1.0" standalone="no"?>
<!DOCTYPE svg PUBLIC "-//W3C//DTD SVG 20010904//EN"
 "http://www.w3.org/TR/2001/REC-SVG-20010904/DTD/svg10.dtd">
<svg version="1.0" xmlns="http://www.w3.org/2000/svg"
 width="420.000000pt" height="320.000000pt" viewBox="0 0 420.000000 320.000000"
 preserveAspectRatio="xMidYMid meet">

<g transform="translate(0.000000,320.000000) scale(0.100000,-0.100000)"
fill="#000000" stroke="none">
<path d="M671 2042 c-14 -26 3 -40 54 -44 l40 -3 75 -310 76 -310 35 -3 c19
-2 152 -1 296 3 220 6 261 9 256 21 -3 8 -19 22 -36 30 -25 13 -67 15 -265 12
l-235 -3 -82 310 -82 310 -61 3 c-52 2 -62 0 -71 -16z"/>
<path d="M1120 1979 c-167 -75 -201 -281 -67 -410 21 -21 58 -45 83 -55 80
-30 197 -2 262 63 l25 25 -24 19 c-31 24 -34 24 -72 -5 -59 -44 -132 -51 -194
-18 -22 12 -63 59 -63 72 0 6 193 87 358 151 21 8 22 10 8 38 -63 120 -200
173 -316 120z m190 -85 c17 -15 28 -30 23 -34 -8 -8 -268 -110 -279 -110 -14
0 5 81 25 108 29 41 76 62 143 62 47 0 62 -5 88 -26z"/>
<path d="M1679 1821 c-23 -23 -29 -38 -29 -71 0 -82 87 -128 168 -88 47 24 8
59 -41 37 -22 -10 -31 -9 -52 5 -27 18 -34 63 -13 84 14 14 74 16 83 2 3 -6
15 -5 31 2 l26 12 -26 23 c-41 35 -108 32 -147 -6z"/>
<path d="M1924 1839 c-25 -13 -54 -60 -54 -89 0 -30 27 -77 51 -91 12 -6 36
-11 54 -11 44 0 72 16 91 54 44 86 -53 180 -142 137z m96 -64 c12 -32 -2 -71
-29 -80 -45 -14 -85 40 -61 84 17 32 77 29 90 -4z"/>
<path d="M2110 1749 c0 -99 0 -99 25 -99 24 0 25 2 25 64 0 74 17 103 51 86
16 -9 19 -22 19 -80 0 -67 1 -70 24 -70 22 0 24 4 28 66 3 51 9 70 24 81 31
23 54 -15 54 -88 0 -57 1 -59 26 -59 l26 0 -3 86 c-3 71 -7 88 -23 100 -26 18
-66 18 -93 -1 -18 -13 -22 -13 -33 0 -8 10 -32 14 -81 13 l-69 0 0 -99z"/>
<path d="M2440 1750 l0 -100 25 0 c23 0 25 3 25 49 0 58 12 96 34 104 29 12
46 -21 46 -89 0 -62 1 -64 25 -64 24 0 25 2 25 64 0 45 5 69 16 80 35 35 54 8
54 -76 0 -66 1 -68 25 -68 25 0 25 1 25 83 0 69 -3 87 -18 100 -23 21 -75 22
-92 2 -11 -13 -15 -13 -33 0 -25 17 -60 19 -88 5 -13 -7 -19 -7 -19 0 0 5 -11
10 -25 10 l-25 0 0 -100z"/>
<path d="M2805 1827 c-20 -16 -28 -35 -32 -69 -5 -42 -3 -50 25 -78 39 -38 93
-43 141 -13 23 15 23 17 7 29 -13 9 -24 10 -41 2 -28 -13 -71 -4 -79 17 -4 13
8 15 76 15 l81 0 -7 33 c-14 77 -114 114 -171 64z m105 -32 c11 -13 6 -15 -35
-15 -41 0 -46 2 -35 15 7 8 23 15 35 15 12 0 28 -7 35 -15z"/>
<path d="M2990 1749 c0 -99 0 -99 25 -99 23 0 25 4 25 44 0 63 10 106 26 106
11 0 34 29 34 44 0 2 -25 5 -55 5 l-55 0 0 -100z"/>
<path d="M3142 1825 c-17 -14 -33 -39 -37 -55 -8 -35 15 -89 46 -108 30 -19
94 -17 125 3 24 15 25 18 11 32 -13 14 -20 14 -47 3 -46 -19 -80 -1 -80 43 0
18 5 38 12 45 15 15 70 16 84 2 7 -7 17 -5 30 5 19 15 19 15 -5 35 -34 30
-101 27 -139 -5z"/>
<path d="M3359 1821 c-23 -23 -29 -38 -29 -71 0 -85 94 -131 169 -83 23 15 23
17 7 29 -13 9 -24 10 -41 2 -28 -13 -71 -4 -79 17 -4 13 8 15 76 15 l81 0 -7
33 c-15 82 -119 116 -177 58z m111 -26 c11 -13 6 -15 -35 -15 -41 0 -46 2 -35
15 7 8 23 15 35 15 12 0 28 -7 35 -15z"/>
<path d="M1470 1755 c0 -24 2 -25 70 -25 68 0 70 1 70 25 0 24 -2 25 -70 25
-68 0 -70 -1 -70 -25z"/>
<path d="M984 1340 c-33 -13 -64 -59 -64 -96 0 -100 139 -133 185 -44 8 16 15
36 15 45 0 32 -32 77 -65 91 -39 16 -42 16 -71 4z"/>
<path d="M1380 1343 c-28 -10 -59 -46 -65 -75 -21 -94 97 -157 166 -89 73 73
-5 199 -101 164z"/>
</g>
</svg>
